HIERARCHY
ROOT HipCenter
{
    OFFSET 0.0 0.0 -0.0
    CHANNELS 6 Xposition Yposition Zposition Zrotation Xrotation Yrotation
    JOINT Spine
    {
        OFFSET 0.0 0.12150578945875168 0.0
        CHANNELS 3 Zrotation Xrotation Yrotation
        JOINT ShoulderCenter
        {
            OFFSET 0.0 0.3339182436466217 0.0
            CHANNELS 3 Zrotation Xrotation Yrotation
            JOINT LeftShoulder
            {
                OFFSET 0.22340819239616394 0.0 0.0
                CHANNELS 3 Zrotation Xrotation Yrotation
                JOINT LeftElbow
                {
                    OFFSET 0.3044331669807434 0.0 0.0
                    CHANNELS 3 Zrotation Xrotation Yrotation
                    JOINT LeftWrist
                    {
                        OFFSET 0.3116108775138855 0.0 0.0
                        CHANNELS 3 Zrotation Xrotation Yrotation
                        JOINT LeftHand
                        {
                            OFFSET 0.03332463651895523 0.0 0.0
                            CHANNELS 3 Zrotation Xrotation Yrotation
                            End Site
                            {
                                OFFSET 0.013329856097698212 0.0 0.0
                            }
                        }
                    }
                }
            }
            JOINT RightShoulder
            {
                OFFSET -0.22340819239616394 0.0 0.0
                CHANNELS 3 Zrotation Xrotation Yrotation
                JOINT RightElbow
                {
                    OFFSET -0.3044331669807434 0.0 0.0
                    CHANNELS 3 Zrotation Xrotation Yrotation
                    JOINT RightWrist
                    {
                        OFFSET -0.3116108775138855 0.0 0.0
                        CHANNELS 3 Zrotation Xrotation Yrotation
                        JOINT RightHand
                        {
                            OFFSET -0.03332463651895523 0.0 0.0
                            CHANNELS 3 Zrotation Xrotation Yrotation
                            End Site
                            {
                                OFFSET -0.013329856097698212 0.0 0.0
                            }
                        }
                    }
                }
            }
            End Site
            {
                OFFSET 0.0 0.13356728851795197 0.0
            }
        }
    }
    JOINT LeftHip
    {
        OFFSET 0.13716834783554077 0.0 0.0
        CHANNELS 3 Zrotation Xrotation Yrotation
        JOINT LeftKnee
        {
            OFFSET 0.0 -0.42703914642333984 0.0
            CHANNELS 3 Zrotation Xrotation Yrotation
            JOINT LeftAnkle
            {
                OFFSET 0.0 -0.43515247106552124 0.0
                CHANNELS 3 Zrotation Xrotation Yrotation
                JOINT LeftFoot
                {
                    OFFSET 0.0 -0.13786539435386658 0.0
                    CHANNELS 3 Zrotation Xrotation Yrotation
                    End Site
                    {
                        OFFSET 0.0 0.0 0.05514615401625633
                    }
                }
            }
        }
    }
    JOINT RightHip
    {
        OFFSET -0.13716834783554077 0.0 0.0
        CHANNELS 3 Zrotation Xrotation Yrotation
        JOINT RightKnee
        {
            OFFSET 0.0 -0.42703914642333984 0.0
            CHANNELS 3 Zrotation Xrotation Yrotation
            JOINT RightAnkle
            {
                OFFSET 0.0 -0.43515247106552124 0.0
                CHANNELS 3 Zrotation Xrotation Yrotation
                JOINT RightFoot
                {
                    OFFSET 0.0 -0.13786539435386658 0.0
                    CHANNELS 3 Zrotation Xrotation Yrotation
                    End Site
                    {
                        OFFSET 0.0 0.0 0.05514615401625633
                    }
                }
            }
        }
    }
}
MOTION
Frames: 4
Frame Time: 0.03333333333333333
1.0889999866485596 -0.04600000008940697 2.372999906539917 17.102702085796157 -25.969764484200333 -144.05665422343807 6.337386425703019 4.4043200471747985 -0.05137346526901207 -6.549517952817592e-07 -4.107977546538727e-06 -12.402674792168856 106.29204029340508 -6.6716716892249055 -178.92901064121006 -6.04718210086174e-07 8.526225354260158e-07 95.32193113138105 1.171552155226485e-06 -50.870434797488244 21.16017960357246 3.1805546814635168e-15 -6.3611093629270335e-15 3.1805546814635168e-15 -104.74894224980108 -0.43863634507316474 -146.11622921444624 2.3093775091142468e-07 -2.8337274742909723e-06 -62.45481202379372 1.4549160678198391e-06 -72.78210102189706 -26.751507312193983 0.0 0.0 -3.1805546814635168e-15 2.6774578271601306 -15.369749970950505 -28.24958692908118 -15.422871718220428 31.232344269285157 -18.05300475079582 73.45761669136037 -48.130954563412836 104.01134317037358 0.0 0.0 5.168401357378215e-15 -46.23193179177044 -77.77782703133394 -104.89112231434976 -48.01836148397625 34.087690018662045 91.05726309712651 -82.03827245853245 -62.039600172057455 -141.45185898228988 0.0 0.0 -3.1805546814635168e-15
1.0520000457763672 -0.03400000184774399 2.2929999828338623 15.945440640642152 -25.889166957079027 -144.9937222192722 6.517965583172622 5.996815713281007 -0.0999319096384083 9.716967093808203e-07 2.442744748653159e-06 -12.80256354522599 104.00252039985475 -7.296048349351189 178.03055978649616 -1.689553234326788e-06 -2.207370808659379e-06 97.0926058915148 1.3118171686459061e-06 -49.83273072532131 23.57223589005613 3.1805546814635168e-15 0.0 0.0 -103.45438099779759 -1.0046408824253545 -146.35080449728463 -4.646963011998809e-06 -3.6813298524229474e-06 -62.08387502433984 -5.722496830081755e-06 -61.92505334297946 -31.6897581193973 0.0 0.0 -4.298718436665534e-15 2.3421440465246506 -16.827250258939063 -27.65325404266635 -17.77734330576656 37.04636300210809 -19.391350303727314 47.85504138580928 -42.90719771769074 63.95644557864857 0.0 0.0 -6.957463365701443e-16 -36.55402222109748 -75.88864786229045 -93.80788590015737 -39.61893687463459 32.314309679570265 80.72922395248162 -66.51724136902426 -61.664798571011 -127.3197204867011 0.0 0.0 0.0
1.0149999856948853 -0.032999999821186066 2.2149999141693115 14.931415740657082 -26.42369603912749 -146.0703529529916 6.408281814337266 7.333699216517996 -0.20360404871399782 3.641599154283965e-07 -2.202483181238082e-06 -11.752878766538686 100.63123244515967 -7.353323216667542 174.41983330742445 -1.7238879028030635e-06 1.4754329148540998e-06 97.85297102461793 1.642442089766481e-06 -47.16996778396345 23.186466440085667 -3.1805546814635164e-15 6.361109362927033e-15 7.951386703658792e-16 -102.41834992284139 -0.8104493539644596 -148.32407706049332 -8.414620118713745e-07 -1.0879819556661237e-06 -62.41470849544709 -1.4058185344697955e-05 -65.4002591877989 -28.87640237088757 0.0 0.0 -3.975693351829396e-15 1.1975523155666723 -22.52125470132316 -22.809348196302096 -20.654734065299156 49.571719084571406 -22.57922284195105 43.46056758171625 -41.58645569782843 50.80249810774084 -1.9133024255678967e-15 1.2446439878534994e-33 -7.454425034680117e-17 -30.711391353314465 -74.52955411758674 -84.59051166203554 -37.14299533882878 35.471311152769104 80.92443942380964 -64.90534916122103 -52.422400440481894 -125.07177823818657 3.1805546814635168e-15 1.7655625192200634e-31 6.3611093629270335e-15
0.9800000190734863 -0.0430000014603138 2.1410000324249268 14.420778201315487 -27.317686383527484 -147.85227250619928 6.44608867864874 8.645092749033628 -0.43068843001517676 -3.2908624972998087e-07 -1.95598935454298e-06 -9.35355268626676 96.88269444098557 -6.129492986999131 171.57240778939507 -1.3693638615220167e-06 -2.706116055419108e-08 96.89740016161065 1.7967476941976019e-06 -47.85709146305158 22.49186427929348 0.0 6.3611093629270335e-15 0.0 -101.66581303059067 -0.5777187821095591 -153.39391344922308 6.849523048326208e-07 4.545852163788922e-06 -61.83864062922282 1.3348639355470347e-05 -68.36633006395869 -27.660468006834012 -6.3611093629270335e-15 6.3611093629270335e-15 7.951386703658796e-16 1.4023306320979925 -31.400413463474447 -15.108295738848778 -24.879618832351106 64.28411023107108 -25.47740864501104 55.200174737875685 -42.158033263397826 57.56937808941178 8.199867538148129e-16 -9.93923337957349e-17 3.60297210009539e-16 -23.188160212389807 -73.57109458291616 -72.09841145461314 -37.17406707696791 42.485794285795414 85.50618318463269 -72.56713014242658 -44.722199364409974 -129.36093751337617 6.3611093629270335e-15 -1.7655625192200634e-31 -3.1805546814635168e-15
